<svg width="310" height="323" viewBox="0 0 310 323" fill="none" xmlns="http://www.w3.org/2000/svg">
<circle cx="155" cy="155" r="155" fill="#FEEBEF"/>
<mask id="mask0_48_242" style="mask-type:alpha" maskUnits="userSpaceOnUse" x="0" y="0" width="310" height="310">
<circle cx="155" cy="155" r="155" fill="#FEEBEF"/>
</mask>
<g mask="url(#mask0_48_242)">
<ellipse cx="155.295" cy="329.19" rx="191.314" ry="155" fill="#FCD5E4"/>
<ellipse cx="156.5" cy="251.5" rx="80.5" ry="19.5" fill="#EBA3BF"/>
</g>
<g clip-path="url(#clip0_48_242)">
<path d="M114.205 196.398C114.205 196.398 95.6796 225.018 117.191 241.609C125.097 247.707 137.24 263.579 199.518 238.756C261.796 213.933 261.115 194.357 243.966 178.466C226.818 162.575 123.65 171.135 120.634 185.258C117.617 199.381 114.204 196.398 114.204 196.398H114.205Z" fill="#FBB432"/>
<path d="M108.944 214.932C108.944 214.932 97.3283 234.147 128.859 249.283C153.591 261.155 170.939 233.553 169.517 224.385C168.094 215.218 214.448 181.264 238.905 181.264C238.905 181.264 250.279 182.691 234.071 168.71C217.861 154.729 101.266 165 108.945 214.932H108.944Z" fill="#DA932B"/>
<path d="M182.604 72.0139C181.703 72.1323 180.776 71.7296 180.263 70.9071C173.574 60.1927 156.755 38.4436 140.981 32.8186C133.368 30.1181 127.566 30.9558 124.209 35.2441C120.916 39.3665 124.867 45.2826 126.155 46.9981L143.892 70.6645C144.686 71.7244 144.474 73.2297 143.418 74.0274C142.361 74.8243 140.86 74.6106 140.066 73.5515L122.331 49.8877C117.491 43.4445 116.79 36.8532 120.458 32.2592C123.155 28.818 129.633 23.7004 142.58 28.2927C159.599 34.3613 177.324 57.1541 184.319 68.359C185.02 69.4828 184.681 70.965 183.561 71.6691C183.26 71.8581 182.933 71.9713 182.603 72.0148L182.604 72.0139Z" fill="#95283B"/>
<path d="M243.966 178.467L153.389 190.376C151.174 190.667 149.117 189.081 148.905 186.848L135.863 66.6564C135.662 64.5033 137.175 62.5281 139.311 62.2472L218.022 51.8988C220.079 51.6281 222.026 52.9869 222.454 55.0301L247.362 173.662C247.821 175.942 246.261 178.166 243.966 178.468V178.467Z" fill="#F64136"/>
<path d="M160.35 191.195L121.034 196.364C118.74 196.666 116.751 194.99 116.539 192.757L106.819 72.129C106.618 69.9759 108.141 68.0799 110.277 67.799L143.66 63.4102L160.35 191.195V191.195Z" fill="#D5293F"/>
<path d="M210.292 68.3735C209.391 68.4919 208.464 68.0892 207.951 67.2667C201.262 56.5523 184.443 34.8024 168.669 29.1782C161.057 26.4777 155.254 27.3146 151.897 31.6038C148.604 35.7261 152.555 41.6423 153.843 43.3578L171.579 67.0241C172.374 68.0841 172.162 69.5893 171.106 70.387C170.048 71.1839 168.548 70.9702 167.754 69.9111L150.019 46.2473C145.179 39.8041 144.478 33.2128 148.146 28.6189C150.843 25.1776 157.321 20.0601 170.268 24.6523C187.288 30.7209 205.012 53.5137 212.007 64.7186C212.708 65.8424 212.369 67.3246 211.249 68.0287C210.948 68.2177 210.621 68.331 210.291 68.3744L210.292 68.3735Z" fill="#D5293F"/>
<path d="M187.07 123.365C183.534 125.449 179.184 125.771 175.464 124.041C170.691 121.821 168.561 117.169 167.747 113.571C167.309 111.631 167.59 109.308 169.172 108.108C170.756 106.905 173.006 107.222 174.201 108.808C174.249 108.871 186.423 116.066 194.172 111.11C195.848 110.043 200.797 111.966 193.546 119.226C192.996 119.777 189.711 121.809 187.07 123.365V123.365Z" fill="#661B1C"/>
<path d="M118.129 99.1512C116.781 99.1512 115.574 98.2053 115.289 96.8295C114.964 95.2545 115.973 93.7127 117.542 93.3857L154.566 85.6817C156.137 85.3548 157.673 86.3671 157.998 87.9421C158.324 89.5171 157.315 91.059 155.746 91.3859L118.722 99.0899C118.523 99.1316 118.325 99.1512 118.13 99.1512H118.129Z" fill="#661B1C"/>
<path d="M173.45 91.6661C169.808 91.6661 166.83 88.7331 166.775 85.0671C166.72 81.3679 169.663 78.3234 173.351 78.2681L211.158 77.6985C214.853 77.6534 217.879 80.5966 217.935 84.2966C217.99 87.9958 215.046 91.0403 211.358 91.0957L173.551 91.6652C173.517 91.6652 173.483 91.6652 173.45 91.6652V91.6661Z" fill="#661B1C"/>
<path d="M175.573 68.3724L165.383 69.844C156.988 71.0561 151.163 78.8665 152.371 87.2889L152.843 90.5804C154.051 99.0028 161.836 104.848 170.23 103.636L180.42 102.164C188.815 100.952 194.64 93.1416 193.432 84.7192L192.96 81.4277C191.752 73.0053 183.968 67.1603 175.573 68.3724Z" fill="#661B1C"/>
<path d="M221.187 63.5619L210.997 65.0334C202.602 66.2456 196.777 74.056 197.985 82.4784L198.659 87.1763C199.867 95.5987 207.651 101.444 216.046 100.232L226.236 98.76C234.631 97.5479 240.456 89.7375 239.248 81.3151L238.574 76.6171C237.366 68.1947 229.582 62.3497 221.187 63.5619Z" fill="#661B1C"/>
<path d="M167.194 100.61C166.9 100.61 166.604 100.51 166.359 100.307C165.805 99.8434 165.73 99.0168 166.191 98.4608L177.215 85.1752L166.284 83.5542L176.448 71.8581C176.923 71.3124 177.747 71.2553 178.291 71.7312C178.835 72.2072 178.891 73.0347 178.418 73.5804L171.395 81.6624L182.202 83.2647L168.201 100.138C167.942 100.45 167.57 100.61 167.196 100.61H167.194Z" fill="white"/>
<path d="M215.35 96.0718C215.055 96.0718 214.759 95.9722 214.515 95.7687C213.961 95.3056 213.885 94.4789 214.347 93.923L225.371 80.6374L214.44 79.0172L224.604 67.3202C225.079 66.7745 225.903 66.7175 226.447 67.1934C226.991 67.6693 227.047 68.4968 226.574 69.0426L219.551 77.1246L230.357 78.726L216.356 95.5993C216.098 95.9109 215.726 96.071 215.352 96.071L215.35 96.0718Z" fill="white"/>
<path d="M110.203 161.087C98.2159 160.68 86.6544 165.961 79.4121 175.553C74.6433 181.869 71.4536 190.37 74.5347 200.95C81.928 226.344 102.403 224.347 104.963 224.347C107.522 224.347 161.625 215.247 167.562 190.409C172.246 170.81 133.573 161.879 110.204 161.086L110.203 161.087Z" fill="#FBB432"/>
<path d="M80.578 174.095C80.578 174.095 58.6091 173.417 48.94 186.543C48.94 186.543 47.9268 187.292 50.7525 187.934C53.5781 188.576 57.3643 189.325 49.9523 193.337C47.1351 194.863 44.4121 196.9 42.5284 199.531C39.1571 204.243 33.6628 206.674 28.1438 207.782C23.8782 208.637 31.9292 214.308 45.6332 218.321C45.6332 218.321 74.1061 226.417 87.4011 218.785" fill="#FF2928"/>
<path d="M82.3591 186.077C82.3591 186.077 71.367 185.738 66.5295 192.305C66.5295 192.305 66.0229 192.679 67.4366 193C68.8502 193.321 70.7442 193.696 67.0361 195.703C65.6266 196.466 64.2639 197.485 63.322 198.802C61.6351 201.16 58.8858 202.376 56.1255 202.931C53.9914 203.359 58.0194 206.196 64.8757 208.204C64.8757 208.204 79.1219 212.255 85.7736 208.436" fill="#C8002D"/>
</g>
<defs>
<clipPath id="clip0_48_242">
<rect width="273" height="316" fill="white" transform="translate(27 7)"/>
</clipPath>
</defs>
</svg>
