<svg width="3497" height="3353" viewBox="0 0 3497 3353" fill="none" xmlns="http://www.w3.org/2000/svg">
<g clip-path="url(#clip0_1055_267)">
<path d="M713.09 911C751.008 911 788.926 911 826.874 911C831.1 912.19 835.267 914.095 839.552 914.452C936.58 922.34 1027.74 950.317 1114.41 993.979C1166.86 1020.41 1218.55 1048.59 1272.34 1071.96C1456.33 1151.93 1650.15 1185.56 1849.83 1187.38C1952.18 1188.3 2052.57 1202.95 2151.56 1226.43C2252.64 1250.42 2350.23 1284.7 2441.04 1336.55C2534.7 1390.01 2617 1456.73 2685.33 1540.4C2746.68 1615.46 2792.51 1699.18 2827.54 1789.31C2844.45 1832.82 2862.54 1876.01 2882.19 1918.33C2943.65 2050.74 3020.47 2173.78 3115.47 2284.74C3153.54 2329.18 3194.7 2371.2 3236.87 2411.8C3274.08 2447.6 3316.52 2478.05 3353.42 2514.12C3428.34 2587.37 3474.98 2676.18 3489.83 2780.65C3492.48 2799.28 3494.47 2818 3496.76 2836.67V2855.62C3493.52 2881.16 3491.91 2907.06 3486.76 2932.2C3465.01 3039.08 3416.46 3130.93 3335.18 3205.49C3282.86 3253.47 3222.91 3285.82 3156.33 3308.95C3080.94 3335.17 3002.67 3329.72 2925.52 3332.34C2796.8 3336.74 2667.86 3335.88 2539.05 3336.92C2359.01 3338.38 2179.01 3339.36 1998.97 3340.94C1952.27 3341.36 1905.6 3343.26 1858.91 3344.42C1756.07 3347.01 1653.21 3350.58 1550.35 3351.77C1486 3352.52 1421.54 3351.18 1357.25 3348.02C1283.59 3344.39 1209.74 3340.4 1136.53 3331.8C1008.19 3316.71 882.59 3288.41 760.948 3243.73C583.085 3178.4 426.174 3081.91 300.247 2938.16C222.923 2849.88 162.325 2751.51 116.996 2643.53C35.7136 2449.69 6.903 2245.48 0.533714 2037.23C-1.01396 1986.25 1.06945 1935 4.13504 1884.01C9.07569 1801.6 12.7961 1718.89 23.0941 1637.1C50.8927 1416.73 140.956 1227.2 311.051 1079.93C407.275 996.628 518.648 944.126 644.158 922.012C667.076 917.964 690.112 914.661 713.09 911Z" fill="#F9F1E6"/>
</g>
<path d="M1525.56 2840.12C1525.56 2672.39 1355.19 2630.46 1270 2630.46H1667.59H1671.02H2068.61C1983.43 2630.46 1813.06 2672.39 1813.06 2840.12H1671.02H1667.59H1525.56Z" fill="#890019"/>
<rect x="715" y="2519.91" width="1908.85" height="122.937" rx="61.4684" fill="#950012"/>
<path d="M1081.1 2836.4C1087.73 2826.79 1098.65 2821.06 1110.32 2821.06H2223.94C2235.54 2821.06 2246.41 2826.73 2253.04 2836.24L2535.16 3240.9C2551.56 3264.42 2534.73 3296.66 2506.06 3296.66H831.52C802.941 3296.66 786.093 3264.59 802.308 3241.06L1081.1 2836.4Z" fill="#950012"/>
<path d="M1184.29 2821.06H1261.85L1123.27 3296.66H971.58L1184.29 2821.06Z" fill="#890019"/>
<path d="M2366.46 3002.4L2419.49 3074.26L2319.7 3296.66H2220.47L2366.46 3002.4Z" fill="#890019"/>
<path fill-rule="evenodd" clip-rule="evenodd" d="M1387.44 887.057C1358.65 889.974 1336.89 902.216 1320.75 918.028L1320.68 918.095L1320.61 918.162C1305.17 933.003 1299.3 952.563 1300.69 975.349C1302.1 998.573 1311.13 1024.02 1324.24 1047.19L1324.24 1047.2L1475.46 1315.06C1481.02 1324.9 1477.55 1337.39 1467.72 1342.95C1457.89 1348.51 1445.42 1345.04 1439.87 1335.2L1288.66 1067.37C1288.66 1067.37 1288.66 1067.37 1288.66 1067.36C1273.52 1040.62 1261.78 1009.1 1259.87 977.844C1257.94 946.174 1266.18 913.775 1292.22 888.698C1314.29 867.11 1344.43 850.269 1383.32 846.328C1422.03 842.404 1467.72 851.423 1520.93 878.494L1520.94 878.502L1520.96 878.509C1606.84 922.379 1687.07 1010.52 1751.85 1100.42C1817 1190.83 1868.33 1285.58 1895.83 1345.72C1900.53 1356 1896.01 1368.15 1885.75 1372.85C1875.48 1377.56 1863.35 1373.04 1858.65 1362.76C1832.14 1304.78 1782.11 1212.38 1718.69 1124.37C1654.9 1035.84 1579.35 954.298 1502.39 914.982C1454.24 890.486 1416.44 884.118 1387.44 887.057Z" fill="#C1841A"/>
<path d="M2373.73 2578.34H1421.57C1398.28 2578.34 1379.16 2559.19 1379.99 2535.87L1407.43 1278.66C1408.26 1256.18 1426.56 1237.87 1449.01 1237.87H2276.43C2298.05 1237.87 2316.35 1254.52 2318.01 1276.16L2415.3 2533.38C2416.97 2557.52 2397.84 2578.34 2373.73 2578.34Z" fill="#F7C935"/>
<path d="M1487.14 2578.34H1073.69C1049.57 2578.34 1031.27 2558.35 1032.1 2535.04L1094.49 1277.83C1095.32 1255.35 1113.62 1237.87 1136.08 1237.87H1487.14V2578.34Z" fill="#E19920"/>
<path fill-rule="evenodd" clip-rule="evenodd" d="M1677.96 887.057C1649.1 889.974 1627.28 902.216 1611.09 918.028L1611.02 918.095L1610.95 918.162C1595.47 933.003 1589.59 952.563 1590.98 975.349C1592.4 998.573 1601.45 1024.02 1614.59 1047.19L1614.6 1047.2L1766.21 1315.06C1771.78 1324.9 1768.3 1337.39 1758.45 1342.95C1748.59 1348.51 1736.09 1345.04 1730.52 1335.2L1578.93 1067.37C1578.92 1067.37 1578.92 1067.36 1578.92 1067.36C1563.75 1040.62 1551.97 1009.1 1550.06 977.844C1548.12 946.174 1556.38 913.775 1582.49 888.698C1604.62 867.11 1634.84 850.269 1673.83 846.328C1712.64 842.404 1758.45 851.423 1811.79 878.494L1811.81 878.502L1811.82 878.509C1897.93 922.379 1978.36 1010.52 2043.31 1100.42C2108.63 1190.83 2160.09 1285.58 2187.66 1345.72C2192.37 1356 2187.85 1368.15 2177.55 1372.85C2167.26 1377.56 2155.1 1373.04 2150.38 1362.76C2123.81 1304.78 2073.65 1212.38 2010.06 1124.37C1946.11 1035.84 1870.36 954.298 1793.21 914.982C1744.93 890.486 1707.03 884.118 1677.96 887.057Z" fill="#F7C935"/>
<path fill-rule="evenodd" clip-rule="evenodd" d="M1844.22 1723.94C1857.26 1720.7 1870.47 1728.59 1873.73 1741.57C1878.15 1759.17 1891.76 1784.81 1916.34 1803.74C1940.12 1822.07 1975.16 1834.93 2025.04 1826.66C2038.3 1824.46 2050.84 1833.37 2053.04 1846.57C2055.25 1859.76 2046.3 1872.24 2033.04 1874.44C1969.92 1884.91 1921.15 1868.71 1886.55 1842.05C1852.74 1816 1833.39 1780.71 1826.51 1753.32C1823.25 1740.34 1831.18 1727.19 1844.22 1723.94Z" fill="#E19920"/>
<path d="M2022.82 1692.98C2049.91 1687.46 2064.23 1645.41 2054.79 1599.05C2045.35 1552.69 2015.73 1519.58 1988.64 1525.1C1961.54 1530.61 1947.23 1572.67 1956.67 1619.03C1966.11 1665.39 1995.72 1698.5 2022.82 1692.98Z" fill="#E19920"/>
<path d="M2163.14 1673.18C2190.23 1667.66 2203.35 1619.75 2192.44 1566.17C2181.53 1512.58 2150.72 1473.62 2123.63 1479.13C2096.53 1484.65 2083.41 1532.56 2094.32 1586.14C2105.23 1639.73 2136.04 1678.7 2163.14 1673.18Z" fill="#E19920"/>
<path d="M1103.42 931.755L1422.35 1389.04L1905.5 1121L1465.51 1439.29L1716.26 1923.04L1404.46 1467.96L914.173 1733.8L1370.24 1415.86L1103.42 931.755Z" fill="white"/>
<path fill-rule="evenodd" clip-rule="evenodd" d="M1225.81 3218.9L1225.81 3218.9C1225.81 3187.24 1200.14 3161.57 1168.48 3161.57C1164.65 3161.57 1160.91 3161.94 1157.29 3162.66L1157.29 2980.11C1160.91 2980.82 1164.65 2981.2 1168.48 2981.2C1200.14 2981.2 1225.81 2955.53 1225.81 2923.87L2064.74 2923.87C2064.74 2955.53 2090.41 2981.2 2122.07 2981.2L2122.07 3161.57C2090.41 3161.57 2064.74 3187.24 2064.74 3218.9L2064.74 3218.9L1225.81 3218.9Z" fill="#F7C935"/>
<path fill-rule="evenodd" clip-rule="evenodd" d="M2122.07 2981.2L2122.07 3161.57C2090.41 3161.57 2064.75 3187.24 2064.75 3218.9L2064.75 3218.9L1899.75 3218.9L2087.57 2969.66C2097.17 2976.9 2109.12 2981.2 2122.07 2981.2Z" fill="#EFB92D"/>
<path fill-rule="evenodd" clip-rule="evenodd" d="M1225.81 3218.9L1264.26 3218.9L1559.98 2923.87L1225.81 2923.87C1225.81 2955.53 1200.14 2981.2 1168.48 2981.2C1164.65 2981.2 1160.91 2980.82 1157.29 2980.11L1157.29 3162.66C1160.91 3161.94 1164.65 3161.57 1168.48 3161.57C1200.14 3161.57 1225.81 3187.24 1225.81 3218.9Z" fill="#EFB92D"/>
<path d="M1820.06 2923.87H1889.97L1583.75 3218.9H1516.64L1820.06 2923.87Z" fill="#EFB92D"/>
<path d="M2053.86 2867.75L2077.29 2921.93L2131.46 2945.36L2077.29 2968.78L2053.86 3022.96L2030.43 2968.78L1976.26 2945.36L2030.43 2921.93L2053.86 2867.75Z" fill="#F1F4FD"/>
<path d="M2279.57 2361.72L2296.36 2400.54L2335.18 2417.33L2296.36 2434.12L2279.57 2472.94L2262.79 2434.12L2223.96 2417.33L2262.79 2400.54L2279.57 2361.72Z" fill="#F1F4FD"/>
<path d="M2192.4 1245.51L2209.19 1284.33L2248.01 1301.12L2209.19 1317.9L2192.4 1356.73L2175.61 1317.9L2136.79 1301.12L2175.61 1284.33L2192.4 1245.51Z" fill="#F1F4FD"/>
<path d="M1380.79 2052.11L1404.84 2107.72L1460.45 2131.76L1404.84 2155.81L1380.79 2211.42L1356.74 2155.81L1301.13 2131.76L1356.74 2107.72L1380.79 2052.11Z" fill="#F1F4FD"/>
<path d="M892.326 969.952L616.416 780.834M806.425 1297.55L502.545 1340.55M1160.95 780.314L1080.94 496.708" stroke="#E19920" stroke-width="54.5097" stroke-linecap="round"/>
<path d="M2497.38 970.905L2773.29 781.788M2583.28 1298.5L2887.16 1341.51M2228.75 781.267L2308.76 497.661M1721.34 686.819L1721.34 353.746" stroke="#E19920" stroke-width="54.5097" stroke-linecap="round"/>
<path d="M1468.54 3128.81C1468.54 3129.75 1468.27 3130.55 1467.73 3131.22C1467.2 3131.76 1466.39 3132.03 1465.32 3132.03H1437.61C1436.68 3132.03 1435.87 3131.76 1435.2 3131.22C1434.67 3130.55 1434.4 3129.75 1434.4 3128.81V3024L1412.71 3036.45C1412.18 3036.85 1411.51 3037.05 1410.71 3037.05C1409.77 3037.05 1408.97 3036.45 1408.3 3035.24L1396.45 3012.96C1396.05 3012.15 1395.85 3011.55 1395.85 3011.15C1395.85 3010.08 1396.45 3009.28 1397.66 3008.74L1437.01 2988.06C1438.35 2987.39 1439.69 2987.05 1441.03 2987.05H1465.32C1466.39 2987.05 1467.2 2987.32 1467.73 2987.86C1468.27 2988.39 1468.54 2989.2 1468.54 2990.27V3128.81ZM1547.05 3135.04C1535.8 3135.04 1526.03 3132.16 1517.73 3126.4C1509.43 3120.65 1503 3112.15 1498.45 3100.9C1493.9 3089.53 1491.63 3075.8 1491.63 3059.74C1491.63 3043.54 1493.84 3029.76 1498.25 3018.38C1502.8 3007 1509.23 2998.43 1517.53 2992.68C1525.83 2986.92 1535.73 2984.04 1547.25 2984.04C1558.49 2984.04 1568.2 2986.92 1576.36 2992.68C1584.66 2998.43 1591.09 3007 1595.64 3018.38C1600.19 3029.76 1602.46 3043.54 1602.46 3059.74C1602.46 3075.8 1600.19 3089.46 1595.64 3100.7C1591.22 3111.95 1584.86 3120.51 1576.56 3126.4C1568.26 3132.16 1558.42 3135.04 1547.05 3135.04ZM1547.25 3102.91C1553.81 3102.91 1558.76 3099.3 1562.11 3092.07C1565.59 3084.84 1567.33 3074.06 1567.33 3059.74C1567.33 3045.02 1565.59 3034.11 1562.11 3027.01C1558.62 3019.78 1553.67 3016.17 1547.25 3016.17C1540.55 3016.17 1535.47 3019.78 1531.99 3027.01C1528.51 3034.24 1526.77 3045.15 1526.77 3059.74C1526.77 3074.06 1528.51 3084.84 1531.99 3092.07C1535.6 3099.3 1540.69 3102.91 1547.25 3102.91ZM1673.95 3135.04C1662.7 3135.04 1652.93 3132.16 1644.63 3126.4C1636.33 3120.65 1629.91 3112.15 1625.35 3100.9C1620.8 3089.53 1618.53 3075.8 1618.53 3059.74C1618.53 3043.54 1620.74 3029.76 1625.15 3018.38C1629.71 3007 1636.13 2998.43 1644.43 2992.68C1652.73 2986.92 1662.64 2984.04 1674.15 2984.04C1685.39 2984.04 1695.1 2986.92 1703.26 2992.68C1711.56 2998.43 1717.99 3007 1722.54 3018.38C1727.09 3029.76 1729.37 3043.54 1729.37 3059.74C1729.37 3075.8 1727.09 3089.46 1722.54 3100.7C1718.12 3111.95 1711.76 3120.51 1703.46 3126.4C1695.16 3132.16 1685.33 3135.04 1673.95 3135.04ZM1674.15 3102.91C1680.71 3102.91 1685.66 3099.3 1689.01 3092.07C1692.49 3084.84 1694.23 3074.06 1694.23 3059.74C1694.23 3045.02 1692.49 3034.11 1689.01 3027.01C1685.53 3019.78 1680.57 3016.17 1674.15 3016.17C1667.45 3016.17 1662.37 3019.78 1658.89 3027.01C1655.41 3034.24 1653.67 3045.15 1653.67 3059.74C1653.67 3074.06 1655.41 3084.84 1658.89 3092.07C1662.5 3099.3 1667.59 3102.91 1674.15 3102.91ZM1784.18 3067.97C1776.28 3067.97 1769.26 3066.3 1763.1 3062.95C1757.08 3059.47 1752.32 3054.65 1748.84 3048.5C1745.5 3042.21 1743.82 3034.98 1743.82 3026.81C1743.82 3018.78 1745.5 3011.62 1748.84 3005.33C1752.19 2999.03 1756.87 2994.15 1762.9 2990.67C1769.06 2987.05 1776.15 2985.25 1784.18 2985.25C1792.08 2985.25 1799.04 2986.99 1805.06 2990.47C1811.22 2993.81 1815.97 2998.63 1819.32 3004.92C1822.8 3011.08 1824.54 3018.24 1824.54 3026.41C1824.54 3034.44 1822.87 3041.6 1819.52 3047.89C1816.18 3054.19 1811.42 3059.14 1805.27 3062.75C1799.24 3066.23 1792.21 3067.97 1784.18 3067.97ZM1805.27 3130.02C1804.19 3131.36 1802.92 3132.03 1801.45 3132.03H1775.55C1774.61 3132.03 1773.88 3131.83 1773.34 3131.42C1772.94 3131.02 1772.74 3130.49 1772.74 3129.82C1772.74 3129.15 1773 3128.55 1773.54 3128.01L1880.56 2989.06C1881.63 2987.72 1882.91 2987.05 1884.38 2987.05H1910.28C1911.22 2987.05 1911.89 2987.26 1912.29 2987.66C1912.82 2988.06 1913.09 2988.59 1913.09 2989.26C1913.09 2989.93 1912.82 2990.53 1912.29 2991.07L1805.27 3130.02ZM1784.18 3044.08C1788.47 3044.08 1791.88 3042.47 1794.42 3039.26C1797.1 3036.05 1798.44 3031.76 1798.44 3026.41C1798.44 3021.19 1797.1 3017.04 1794.42 3013.96C1791.75 3010.75 1788.33 3009.14 1784.18 3009.14C1779.9 3009.14 1776.42 3010.75 1773.74 3013.96C1771.2 3017.17 1769.93 3021.46 1769.93 3026.81C1769.93 3032.03 1771.26 3036.25 1773.94 3039.46C1776.62 3042.54 1780.03 3044.08 1784.18 3044.08ZM1901.65 3133.83C1893.75 3133.83 1886.72 3132.16 1880.56 3128.81C1874.54 3125.33 1869.79 3120.51 1866.31 3114.36C1862.96 3108.07 1861.29 3100.84 1861.29 3092.67C1861.29 3084.64 1862.96 3077.48 1866.31 3071.19C1869.65 3064.9 1874.34 3060.01 1880.36 3056.53C1886.52 3052.91 1893.61 3051.11 1901.65 3051.11C1909.54 3051.11 1916.51 3052.85 1922.53 3056.33C1928.69 3059.67 1933.44 3064.49 1936.79 3070.79C1940.27 3076.94 1942.01 3084.1 1942.01 3092.27C1942.01 3100.3 1940.33 3107.46 1936.99 3113.75C1933.64 3120.05 1928.89 3125 1922.73 3128.61C1916.71 3132.09 1909.68 3133.83 1901.65 3133.83ZM1901.65 3109.94C1905.93 3109.94 1909.34 3108.33 1911.89 3105.12C1914.56 3101.91 1915.9 3097.62 1915.9 3092.27C1915.9 3087.05 1914.56 3082.9 1911.89 3079.82C1909.21 3076.61 1905.8 3075 1901.65 3075C1897.36 3075 1893.88 3076.61 1891.21 3079.82C1888.66 3083.03 1887.39 3087.32 1887.39 3092.67C1887.39 3097.89 1888.73 3102.11 1891.41 3105.32C1894.08 3108.4 1897.5 3109.94 1901.65 3109.94Z" fill="#890019"/>
<defs>
<clipPath id="clip0_1055_267">
<rect width="3496.79" height="2441.04" fill="white" transform="translate(0 911)"/>
</clipPath>
</defs>
</svg>
