<svg width="139" height="113" viewBox="0 0 139 113" fill="none" xmlns="http://www.w3.org/2000/svg">
<path d="M0.0703125 58.9366H10.6389L16.5103 29.7263H5.94173L0.0703125 58.9366ZM8.14351 27.0842H20.6203L22.6753 16.8092H10.1985L8.14351 27.0842ZM14.7489 67.1566H25.3174L31.776 35.5977H39.7024L40.8767 29.7263H33.097L33.3906 28.4053C33.831 25.9099 34.7117 23.121 38.6749 23.121C41.0235 23.121 43.2252 23.2678 45.427 24.2953L46.6013 18.1303C44.106 17.2496 41.4638 16.8092 38.9685 16.8092C30.4549 16.8092 24.5835 21.7999 22.3817 29.7263H18.7121L17.5378 35.5977H21.2074L14.7489 67.1566Z" fill="#EA1D2C"/>
<path d="M48.216 59.5238C60.6927 59.5238 69.3531 48.2213 69.3531 38.9738C69.3531 32.0749 63.0413 29.1392 56.8763 29.1392C43.2252 29.1392 35.7392 41.3224 35.7392 49.6891C35.7392 56.5881 42.1978 59.5238 48.216 59.5238ZM81.683 59.5238C94.1598 59.5238 102.82 48.2213 102.82 38.9738C102.82 32.0749 96.3616 29.1392 90.1966 29.1392C76.5455 29.1392 69.0595 41.3224 69.0595 49.6891C69.0595 56.5881 75.6648 59.5238 81.683 59.5238ZM119.994 58.9366H130.416L138.929 17.3963H128.361L125.865 29.7263L121.462 29.286C111.187 29.286 101.793 42.4967 101.793 51.8909C101.793 55.7074 104.288 59.5238 108.545 59.5238C114.563 59.5238 118.82 56.5881 120.581 53.6524H121.168L119.994 58.9366ZM87.4077 80.8077C79.2042 87.604 68.6682 90.9229 58.0506 90.0552C44.106 89.1744 34.1245 78.4591 32.3631 67.1566H32.9503C36.1795 74.2023 43.9592 80.8077 53.5002 81.8352C63.1881 83.0094 74.7841 78.6059 81.0959 72.5877L74.0502 67.1566H95.3341L90.637 89.7616L87.5545 80.9545L87.4077 80.8077Z" fill="#EA1D2C"/>
</svg>
