<svg width="179" height="179" viewBox="0 0 179 179" fill="none" xmlns="http://www.w3.org/2000/svg">
<path d="M20.0705 94.9366H30.6391L36.5105 65.7263H25.9419L20.0705 94.9366ZM28.1437 63.0842H40.6205L42.6755 52.8092H30.1987L28.1437 63.0842ZM34.749 103.157H45.3176L51.7762 71.5977H59.7026L60.8769 65.7263H53.0972L53.3908 64.4053C53.8312 61.9099 54.7119 59.121 58.6751 59.121C61.0236 59.121 63.2254 59.2678 65.4272 60.2953L66.6015 54.1303C64.1061 53.2496 61.464 52.8092 58.9687 52.8092C50.4551 52.8092 44.5837 57.7999 42.3819 65.7263H38.7123L37.538 71.5977H41.2076L34.749 103.157Z" fill="white"/>
<path d="M68.2161 95.5238C80.6929 95.5238 89.3532 84.2213 89.3532 74.9738C89.3532 68.0749 83.0414 65.1392 76.8765 65.1392C63.2254 65.1392 55.7393 77.3224 55.7393 85.6892C55.7393 92.5881 62.1979 95.5238 68.2161 95.5238ZM101.683 95.5238C114.16 95.5238 122.82 84.2213 122.82 74.9738C122.82 68.0749 116.362 65.1392 110.197 65.1392C96.5457 65.1392 89.0596 77.3224 89.0596 85.6892C89.0596 92.5881 95.665 95.5238 101.683 95.5238M139.994 94.9367H150.416L158.93 53.3964H148.361L145.866 65.7263L141.462 65.286C131.187 65.286 121.793 78.4967 121.793 87.8909C121.793 91.7074 124.288 95.5238 128.545 95.5238C134.563 95.5238 138.82 92.5881 140.581 89.6524H141.168L139.994 94.9367ZM107.408 116.808C99.2044 123.604 88.6684 126.923 78.0507 126.055C64.1061 125.174 54.1247 114.459 52.3633 103.157H52.9504C56.1797 110.202 63.9593 116.808 73.5004 117.835C83.1882 119.009 94.7843 114.606 101.096 108.588L94.0504 103.157H115.334L110.637 125.762L107.555 116.954L107.408 116.808Z" fill="white"/>
</svg>
