<?xml version="1.0" encoding="utf-8"?>
<!-- Generator: Adobe Illustrator 24.2.1, SVG Export Plug-In . SVG Version: 6.00 Build 0)  -->
<svg version="1.1" id="Layer_1" xmlns="http://www.w3.org/2000/svg" xmlns:xlink="http://www.w3.org/1999/xlink" x="0px" y="0px"
	 viewBox="0 0 201.5 201.5" style="enable-background:new 0 0 201.5 201.5;" xml:space="preserve">
<style type="text/css">
	.st0{fill:#FBB432;}
	.st1{fill:#DA932B;}
	.st2{fill:#95283B;}
	.st3{fill:#F64136;}
	.st4{fill:#D5293F;}
	.st5{fill:#661B1C;}
	.st6{fill:#FFFFFF;}
	.st7{fill:#FF2928;}
	.st8{fill:#C8002D;}
</style>
<g>
	<path class="st0" d="M77.6,152.5c0,0-16.3,25.1,2.6,39.7c7,5.4,17.7,19.3,72.6-2.5c54.9-21.8,54.3-39,39.2-53
		c-15.1-14-106-6.4-108.7,6C80.6,155.1,77.6,152.5,77.6,152.5L77.6,152.5z"/>
	<path class="st1" d="M73,168.8c0,0-10.2,16.9,17.6,30.2c21.8,10.4,37.1-13.8,35.8-21.9s39.6-37.9,61.2-37.9c0,0,10,1.3-4.3-11
		C169,115.9,66.2,124.9,73,168.8L73,168.8z"/>
	<g id="Layer_1-2">
		<path class="st2" d="M137.9,43.2c-0.8,0.1-1.6-0.2-2.1-1c-5.9-9.4-20.7-28.5-34.6-33.5c-6.7-2.4-11.8-1.6-14.8,2.1
			c-2.9,3.6,0.6,8.8,1.7,10.3L103.8,42c0.7,0.9,0.5,2.3-0.4,3c-0.9,0.7-2.3,0.5-3-0.4L84.8,23.8c-4.3-5.7-4.9-11.4-1.7-15.5
			c2.4-3,8.1-7.5,19.5-3.5c15,5.3,30.6,25.4,36.8,35.2c0.6,1,0.3,2.3-0.7,2.9C138.5,43.1,138.2,43.2,137.9,43.2L137.9,43.2z"/>
		<path class="st3" d="M192,136.7l-79.8,10.5c-2,0.3-3.8-1.1-4-3.1L96.7,38.5c-0.2-1.9,1.2-3.6,3-3.9l69.4-9.1
			c1.8-0.2,3.5,1,3.9,2.8l22,104.2C195.4,134.5,194,136.5,192,136.7L192,136.7z"/>
		<path class="st4" d="M118.3,147.9l-34.7,4.5c-2,0.3-3.8-1.2-4-3.2l-8.6-106c-0.2-1.9,1.2-3.6,3-3.8l29.4-3.9L118.3,147.9
			L118.3,147.9z"/>
		<path class="st4" d="M162.3,40c-0.8,0.1-1.6-0.2-2.1-1c-5.9-9.4-20.7-28.5-34.6-33.5c-6.7-2.4-11.8-1.6-14.8,2.1
			c-2.9,3.6,0.6,8.8,1.7,10.3l15.6,20.8c0.7,0.9,0.5,2.3-0.4,3c-0.9,0.7-2.3,0.5-3-0.4l-15.6-20.8c-4.3-5.7-4.9-11.4-1.7-15.5
			c2.4-3,8.1-7.5,19.5-3.5c15,5.3,30.6,25.4,36.8,35.2c0.6,1,0.3,2.3-0.7,2.9C162.9,39.9,162.6,40,162.3,40L162.3,40z"/>
		<path class="st5" d="M141.8,88.3c-3.1,1.8-6.9,2.1-10.2,0.6c-4.2-2-6.1-6-6.8-9.2c-0.4-1.7-0.1-3.7,1.3-4.8
			c1.4-1.1,3.4-0.8,4.4,0.6c0,0.1,10.8,6.4,17.6,2c1.5-0.9,5.8,0.8-0.6,7.1C147.1,85.2,144.2,87,141.8,88.3L141.8,88.3z"/>
	</g>
	<path class="st5" d="M81.1,67.1c-1.2,0-2.3-0.8-2.5-2c-0.3-1.4,0.6-2.7,2-3l32.6-6.8c1.4-0.3,2.7,0.6,3,2c0.3,1.4-0.6,2.7-2,3
		L81.6,67C81.4,67,81.3,67.1,81.1,67.1L81.1,67.1z"/>
	<path class="st5" d="M129.8,60.5c-3.2,0-5.8-2.6-5.9-5.8c0-3.2,2.5-5.9,5.8-6l33.3-0.5c3.3,0,5.9,2.5,6,5.8c0,3.2-2.5,5.9-5.8,6
		L129.8,60.5C129.9,60.5,129.9,60.5,129.8,60.5L129.8,60.5z"/>
	<path class="st5" d="M122.7,41.3l9-1.3c7.4-1.1,14.3,4.1,15.3,11.5l0.4,2.9c1.1,7.4-4.1,14.3-11.5,15.3l-9,1.3
		c-7.4,1.1-14.3-4.1-15.3-11.5l-0.4-2.9C110.2,49.2,115.3,42.4,122.7,41.3z"/>
	<path class="st5" d="M162.9,37.1l9-1.3c7.4-1.1,14.3,4.1,15.3,11.5l0.6,4.1c1.1,7.4-4.1,14.3-11.5,15.3l-9,1.3
		c-7.4,1.1-14.3-4.1-15.3-11.5l-0.6-4.1C150.4,45,155.5,38.1,162.9,37.1z"/>
	<path class="st6" d="M124.3,68.3c-0.3,0-0.5-0.1-0.7-0.3c-0.5-0.4-0.6-1.1-0.1-1.6l9.7-11.7l-9.6-1.4l9-10.3
		c0.4-0.5,1.1-0.5,1.6-0.1c0.5,0.4,0.5,1.1,0.1,1.6l-6.2,7.1l9.5,1.4l-12.3,14.8C125,68.2,124.7,68.3,124.3,68.3L124.3,68.3z"/>
	<path class="st6" d="M166.8,64.3c-0.3,0-0.5-0.1-0.7-0.3c-0.5-0.4-0.6-1.1-0.1-1.6l9.7-11.7l-9.6-1.4l9-10.3
		c0.4-0.5,1.1-0.5,1.6-0.1c0.5,0.4,0.5,1.1,0.1,1.6l-6.2,7.1l9.5,1.4l-12.3,14.8C167.4,64.2,167.1,64.3,166.8,64.3L166.8,64.3z"/>
	<path class="st0" d="M74.1,121.5c-10.6-0.4-20.8,4.3-27.1,12.7c-4.2,5.5-7,13-4.3,22.3c6.5,22.3,24.6,20.6,26.8,20.6
		s49.9-8,55.2-29.8C128.8,130,94.7,122.2,74.1,121.5L74.1,121.5z"/>
	<path class="st7" d="M48,132.9c0,0-19.4-0.6-27.9,10.9c0,0-0.9,0.7,1.6,1.2c2.5,0.6,5.8,1.2-0.7,4.7c-2.5,1.3-4.9,3.1-6.5,5.4
		c-3,4.1-7.8,6.3-12.7,7.2c-3.8,0.8,3.3,5.7,15.4,9.3c0,0,25.1,7.1,36.8,0.4"/>
	<path class="st8" d="M49.6,143.4c0,0-9.7-0.3-14,5.5c0,0-0.4,0.3,0.8,0.6c1.2,0.3,2.9,0.6-0.4,2.4c-1.2,0.7-2.4,1.6-3.3,2.7
		c-1.5,2.1-3.9,3.1-6.3,3.6c-1.9,0.4,1.7,2.9,7.7,4.6c0,0,12.6,3.6,18.4,0.2"/>
</g>
</svg>
