<svg width="6121" height="7449" viewBox="0 0 6121 7449" fill="none" xmlns="http://www.w3.org/2000/svg">
<g clip-path="url(#clip0_816_989)">
<path fill-rule="evenodd" clip-rule="evenodd" d="M1982.58 711.33C1872.24 722.499 1788.82 769.368 1726.94 829.906L1726.67 830.164L1726.41 830.419C1667.22 887.239 1644.71 962.128 1650.03 1049.36C1655.46 1138.28 1690.05 1235.72 1740.31 1324.42L1740.34 1324.46L2320 2349.97C2341.29 2387.65 2328.01 2435.46 2290.33 2456.75C2252.65 2478.05 2204.84 2464.77 2183.55 2427.09L1603.95 1401.69C1603.94 1401.67 1603.93 1401.66 1603.92 1401.64C1545.91 1299.27 1500.89 1178.58 1493.59 1058.92C1486.18 937.664 1517.75 813.624 1617.59 717.614C1702.18 634.963 1817.73 570.484 1966.8 555.395C2115.19 540.374 2290.34 574.904 2494.29 678.547L2494.35 678.576L2494.4 678.604C2823.62 846.563 3131.14 1184.02 3379.46 1528.19C3629.19 1874.34 3825.97 2237.13 3931.37 2467.38C3949.38 2506.73 3932.08 2553.24 3892.73 2571.25C3853.37 2589.26 3806.87 2571.96 3788.85 2532.61C3687.24 2310.63 3495.46 1956.87 3252.35 1619.89C3007.83 1280.97 2718.22 968.769 2423.23 818.246C2238.66 724.459 2093.75 700.078 1982.58 711.33Z" fill="#C1841A"/>
<path d="M5758.32 7181.5H2111.69C2022.51 7181.5 1949.26 7108.25 1952.45 7019.08L2057.55 2210.19C2060.73 2124.2 2130.8 2054.14 2216.79 2054.14H5385.7C5468.5 2054.14 5538.57 2117.83 5544.94 2200.63L5917.56 7009.53C5923.93 7101.88 5850.68 7181.5 5758.32 7181.5Z" fill="#F7C935"/>
<path d="M2363.27 7181.5H780.412C688.052 7181.5 617.986 7105.07 621.171 7015.9L860.033 2207C863.218 2121.01 933.284 2054.13 1019.27 2054.13H2363.27V7181.5Z" fill="#E19920"/>
<path fill-rule="evenodd" clip-rule="evenodd" d="M3097.27 711.33C2986.94 722.499 2903.51 769.368 2841.63 829.906L2841.36 830.164L2841.1 830.419C2781.91 887.239 2759.4 962.128 2764.72 1049.36C2770.15 1138.28 2804.74 1235.72 2855.01 1324.42L2855.03 1324.46L3434.69 2349.97C3455.99 2387.65 3442.7 2435.46 3405.02 2456.75C3367.34 2478.05 3319.53 2464.77 3298.24 2427.09L2718.64 1401.69C2718.63 1401.67 2718.62 1401.66 2718.61 1401.64C2660.6 1299.27 2615.59 1178.58 2608.28 1058.92C2600.87 937.664 2632.44 813.624 2732.28 717.614C2816.87 634.963 2932.42 570.484 3081.49 555.395C3229.88 540.374 3405.03 574.904 3608.98 678.547L3609.04 678.576L3609.09 678.604C3938.31 846.563 4245.84 1184.02 4494.15 1528.19C4743.89 1874.34 4940.66 2237.13 5046.06 2467.38C5064.08 2506.73 5046.78 2553.24 5007.42 2571.25C4968.07 2589.26 4921.56 2571.96 4903.54 2532.61C4801.93 2310.63 4610.16 1956.87 4367.04 1619.89C4122.52 1280.97 3832.91 968.769 3537.92 818.246C3353.35 724.459 3208.44 700.078 3097.27 711.33Z" fill="#F7C935"/>
<path d="M3477.96 3789.8C3516.18 3942.66 3700.9 4203.81 4083.08 4140.11" stroke="#661B1C" stroke-width="164.587" stroke-linecap="round"/>
<path d="M4437.91 3837.28C4515.47 3821.49 4556.44 3701.1 4529.42 3568.39C4502.4 3435.68 4417.62 3340.9 4340.06 3356.69C4262.5 3372.48 4221.53 3492.87 4248.55 3625.58C4275.57 3758.29 4360.35 3853.07 4437.91 3837.28Z" fill="#661B1C"/>
<path d="M4897.54 3785.96C4975.1 3770.17 5012.66 3633.02 4981.43 3479.63C4950.19 3326.24 4862 3214.69 4784.44 3230.48C4706.88 3246.27 4669.32 3383.42 4700.55 3536.81C4731.78 3690.2 4819.98 3801.75 4897.54 3785.96Z" fill="#661B1C"/>
<path d="M818.842 392.805L2039.76 2143.38L3889.39 1117.26L2205 2335.76L3164.91 4187.68L1971.3 2445.53L94.3572 3463.23L1840.28 2246.06L818.842 392.805Z" fill="white"/>
<path opacity="0.5" d="M4341.82 2487.22C4040.9 2371.03 3340.86 2330.22 2948 3096.49" stroke="white" stroke-width="150" stroke-linecap="round"/>
</g>
<defs>
<clipPath id="clip0_816_989">
<rect width="6121" height="7449" fill="white"/>
</clipPath>
</defs>
</svg>
